<svg width="174" height="26" viewBox="0 0 174 26" xmlns="http://www.w3.org/2000/svg">
    <title>Chefkoch.de – Rezepte Kochrezepte</title>
    <g fill="none" fill-rule="evenodd">
        <path class="logo-wordmark" d="M41.73 7.972l-1.14 2.037c-.618-.554-1.613-.83-2.983-.83-1.3 0-2.365.488-3.195 1.46-.83.972-1.246 2.2-1.246 3.692 0 1.488.386 2.67 1.156 3.547.77.872 1.8 1.31 3.085 1.31 1.47 0 2.62-.472 3.453-1.414l1.29 1.99c-1.132 1.068-2.788 1.603-4.97 1.603-2.185 0-3.882-.64-5.09-1.917-1.21-1.276-1.814-3.02-1.814-5.226 0-2.055.67-3.774 2.01-5.155C33.626 7.69 35.34 7 37.432 7c1.79 0 3.223.324 4.297.972M53.397 21.133V14.88H47.17v6.253h-2.784V7.236h2.785V12.7h6.227V7.236h2.73v13.897M62.115 9.416v3.257h5.017v2.103h-5.017v4.175h7.066v2.183h-9.85V7.236h9.85v2.18M74.55 9.416v3.257h5.49v2.103h-5.49v6.357h-2.784V7.236h10.297v2.18M93.427 21.133l-4.378-5.92-1.743 2.114v3.806h-2.785V7.236h2.785v6.645l5.332-6.644h3.15l-4.904 6.07 5.85 7.827M97.28 14.07c0-1.976.608-3.65 1.83-5.017C100.327 7.683 101.96 7 104 7c2.247 0 3.965.62 5.153 1.857 1.188 1.24 1.783 2.976 1.783 5.212 0 2.24-.622 4.012-1.863 5.326-1.24 1.315-3.002 1.973-5.287 1.973-2.1 0-3.707-.653-4.828-1.955-1.12-1.3-1.68-3.083-1.68-5.346m2.89 0c0 1.626.306 2.887.924 3.778.62.895 1.517 1.342 2.695 1.342 1.383 0 2.44-.438 3.166-1.31.728-.876 1.092-2.146 1.092-3.81 0-3.26-1.35-4.89-4.046-4.89-1.237 0-2.184.442-2.843 1.323-.662.885-.99 2.073-.99 3.566M124.104 7.972l-1.142 2.037c-.618-.554-1.612-.83-2.982-.83-1.298 0-2.363.488-3.196 1.46-.83.972-1.245 2.2-1.245 3.692 0 1.488.385 2.67 1.156 3.547.77.872 1.798 1.31 3.086 1.31 1.468 0 2.62-.472 3.45-1.414l1.292 1.99c-1.133 1.068-2.79 1.603-4.972 1.603-2.184 0-3.878-.64-5.088-1.917-1.21-1.276-1.815-3.02-1.815-5.226 0-2.055.67-3.774 2.01-5.155C116 7.69 117.715 7 119.806 7c1.79 0 3.223.324 4.298.972M135.77 21.133V14.88h-6.226v6.253h-2.784V7.236h2.784V12.7h6.226V7.236h2.732v13.897M141.966 19.892c0-.472.187-.874.56-1.205.372-.332.826-.497 1.358-.497.533 0 .985.165 1.36.497.37.33.558.733.558 1.205 0 .474-.187.88-.56 1.21-.373.336-.825.503-1.358.503-.532 0-.986-.167-1.36-.503-.37-.33-.558-.736-.558-1.21M153.206 21.133h-3.473V7.263c2.214-.07 3.607-.105 4.177-.105 2.282 0 4.09.59 5.428 1.776 1.336 1.184 2.004 2.757 2.004 4.715 0 4.987-2.712 7.483-8.136 7.483m-.69-11.728v9.49c.448.038.932.056 1.45.056 1.405 0 2.5-.45 3.296-1.356.792-.902 1.19-2.17 1.19-3.794 0-2.975-1.553-4.462-4.665-4.462-.3 0-.724.02-1.272.067M166.563 9.416v3.257h5.016v2.103h-5.017v4.175h7.066v2.183h-9.853V7.236h9.852v2.18" fill="#000"></path>
        <path class="logo-icon" d="M19.65 1.858l-1.323-.41c-4.57-1.42-4.66-1.423-9.754-.364l-.923.19C5.452.92 3.15.8 1.14 2.128c-.222.145-.347.398-.33.662L2 21.19v3.502c0 .407.33.736.738.736H18.08c.41 0 .74-.33.74-.736v-3.498l1.348-18.578c.025-.342-.19-.656-.518-.758zM17.56 23.16c0 .475-.392.862-.874.862H4.363c-.48 0-.874-.387-.874-.862v-1.17c0-.476.393-.864.873-.864h12.323c.482 0 .875.388.875.863v1.17zm1.16-19.234L17.592 19.16c-.03.384-.35.68-.735.68h-.56c-.007 0-.015-.004-.026-.005-.218-.028-.44-.158-.422-.437l-.003-.002.988-14.815c.01-.143-.078-.26-.196-.26h-.21c-.118 0-.222.117-.23.26l-.994 14.907c-.024.204-.254.323-.59.342-.04 0-.078.005-.11.01h-.885c-.197-.042-.382-.17-.364-.425l-.002-.004.586-15.403c.006-.15-.085-.27-.202-.27h-.21c-.118 0-.22.12-.224.27l-.59 15.5c-.026.198-.25.314-.577.334h-.89c-.21-.03-.386-.15-.382-.395V4.45c0-.144-.097-.263-.215-.263h-.21c-.117 0-.213.12-.213.263v15.09c-.043.167-.214.284-.56.3H8.747c-.328-.018-.555-.13-.587-.327l-.59-14.77c-.006-.142-.107-.258-.223-.258h-.21c-.117 0-.21.116-.203.258l.587 14.7c-.002.25-.214.37-.42.397h-.953c-.32-.017-.545-.126-.585-.314l-.998-15.41c-.01-.148-.114-.27-.23-.27h-.21c-.118 0-.206.122-.196.27l.993 15.337c-.008.246-.217.36-.422.387H4.06c-.39 0-.71-.3-.736-.687L2.33 4.067c-.018-.266.11-.522.334-.666 1.703-1.105 3.64-1.01 5.49-.72l.75-.152c4.237-.863 4.39-.858 8.19.303l1.103.336c.33.1.548.416.522.76z" fill="#618F30"></path>
    </g>
</svg>